<?xml version="1.0" encoding="utf-8"?>
<!-- Generator: Adobe Illustrator 22.1.0, SVG Export Plug-In . SVG Version: 6.00 Build 0)  -->
<svg version="1.1" id="레이어_1" xmlns="http://www.w3.org/2000/svg" xmlns:xlink="http://www.w3.org/1999/xlink" x="0px"
	 y="0px" viewBox="0 0 1133.9 850.4" style="enable-background:new 0 0 1133.9 850.4;" xml:space="preserve">
<g>
	<path d="M333.8,393.8v-53.5h436v53.5H333.8z M552.8,660.8c-86.9,0-153.7-45.2-153.7-117.5c0-73.7,66.8-117.5,153.7-117.5
		c86.2,0,153.7,43.8,153.7,117.5C706.5,615.6,638.3,660.8,552.8,660.8z M446.4,292.3v-53.5h211.4v53.5H446.4z M552.8,478
		c-54.2,0-92.5,25-92.5,65.4c0,39.6,38.2,64.7,92.5,64.7c54.2,0,92.5-25,92.5-64.7C645.3,503,607.1,478,552.8,478z"/>
</g>
</svg>
